[center][img]http://i1179.photobucket.com/albums/x394/crewsade/t1-3.jpg[/img]

Release Brought to you by CrEwSaDe
                             

******************************************************************************************************              


                           **Tekken.Blood.Vengeance.2011.BRRIP.X264.AC3.CrEwSaDe**

******************************************************************************************************

Encoder ..........: XtC42                                                    
Video Codec.......: AVC
Video Bitrate.....: 929 Kbps                              
Audio Codec.......: AC3                              
Audio Bitrate.....: 128 Kbps                           
Resolution........: 720X400 
Runtime...........: 1h 32mn                            
Release Date......: 1 September 2011 (Japan)
Theatre Date......: 
Language..........: English
Subtitles.........: n/a
IMDB Rating.......: 5.0/10  
IMDb URL..........: http://www.imdb.com/title/tt2005363/

General
Format                           : Matroska
Format version                   : Version 2
File size                        : 698 MiB
Duration                         : 1h 32mn
Overall bit rate                 : 1 058 Kbps
Encoded date                     : UTC 2011-11-25 12:09:43
Writing application              : mkvmerge v4.9.1 
Writing library                  : libebml v1.2.1 + libmatroska v1.1.1

Video
ID                               : 1
Format                           : AVC
Format/Info                      : Advanced Video Codec
Format profile                   : High@L3.0
Format settings, CABAC           : Yes
Format settings, ReFrames        : 4 frames
Codec ID                         : V_MPEG4/ISO/AVC
Duration                         : 1h 32mn
Bit rate                         : 929 Kbps
Width                            : 720 pixels
Height                           : 400 pixels
Display aspect ratio             : 16:9
Frame rate                       : 23.976 fps
Color space                      : YUV
Chroma subsampling               : 4:2:0
Bit depth                        : 8 bits
Scan type                        : Progressive
Bits/(Pixel*Frame)               : 0.135
Stream size                      : 600 MiB (86%)
Writing library                  : x264 core 116 r2074 2641b9e
Encoding settings                : cabac=1 / ref=3 / deblock=1:-1:-1 / analyse=0x3:0x113 / me=hex / subme=7 / psy=1 / psy_rd=1.00:0.15 / mixed_ref=1 / me_range=16 / chroma_me=1 / trellis=1 / 8x8dct=1 / cqm=0 / deadzone=21,11 / fast_pskip=1 / chroma_qp_offset=-3 / threads=6 / sliced_threads=0 / nr=0 / decimate=1 / interlaced=0 / bluray_compat=0 / constrained_intra=0 / bframes=3 / b_pyramid=2 / b_adapt=1 / b_bias=0 / direct=1 / weightb=1 / open_gop=0 / weightp=2 / keyint=250 / keyint_min=23 / scenecut=40 / intra_refresh=0 / rc_lookahead=40 / rc=2pass / mbtree=1 / bitrate=929 / ratetol=1.0 / qcomp=0.60 / qpmin=10 / qpmax=51 / qpstep=4 / cplxblur=20.0 / qblur=0.5 / ip_ratio=1.40 / aq=1:1.00

Audio
ID                               : 2
Format                           : AC-3
Format/Info                      : Audio Coding 3
Mode extension                   : CM (complete main)
Codec ID                         : A_AC3
Duration                         : 1h 32mn
Bit rate mode                    : Constant
Bit rate                         : 128 Kbps
Channel(s)                       : 6 channels
Channel positions                : Front: L C R, Side: L R, LFE
Sampling rate                    : 48.0 KHz
Bit depth                        : 16 bits
Compression mode                 : Lossy
Stream size                      : 84.4 MiB (12%)




SOURCES:

VIDEO: Tekken.Blood.Vengeance.2011.BluRay.720p.DTS.2Audio.x264-JOMA Thanks
AUDIO: Tekken.Blood.Vengeance.2011.BluRay.720p.DTS.2Audio.x264-JOMA Thanks

Plot: This movie has a fair amount of depth and character development. Thanks to the small cast, tightly focused story, and an understanding of what makes a good game as opposed to a good movie, the audience is treated to something special--learning who these people we fight with in-game truly are, and how they got that way.


Screens:

[img]http://i1179.photobucket.com/albums/x394/crewsade/t2-3.png[/img]
[img]http://i1179.photobucket.com/albums/x394/crewsade/t3-3.png[/img]
[img]http://i1179.photobucket.com/albums/x394/crewsade/t4-3.png[/img][/center]